<svg xmlns="http://www.w3.org/2000/svg" xmlns:xlink="http://www.w3.org/1999/xlink" viewBox="715 1232 79 77">
  <defs>
    <style>
      .cls-1, .cls-2 {
        fill: #fff;
      }

      .cls-1 {
        stroke: #eeefef;
      }

      .cls-2 {
        stroke: #7c57f8;
      }

      .cls-2, .cls-3 {
        stroke-width: 3px;
      }

      .cls-3, .cls-5 {
        fill: none;
      }

      .cls-3 {
        stroke: #f2c510;
      }

      .cls-4 {
        stroke: none;
      }

      .cls-6 {
        filter: url(#Ellipse_13);
      }
    </style>
    <filter id="Ellipse_13" x="715" y="1232" width="79" height="77" filterUnits="userSpaceOnUse">
      <feOffset dy="3" input="SourceAlpha"/>
      <feGaussianBlur stdDeviation="3" result="blur"/>
      <feFlood flood-opacity="0.161"/>
      <feComposite operator="in" in2="blur"/>
      <feComposite in="SourceGraphic"/>
    </filter>
  </defs>
  <g id="Camera" transform="translate(-711 -1086)">
    <g class="cls-6" transform="matrix(1, 0, 0, 1, 711, 1086)">
      <g id="Ellipse_13-2" data-name="Ellipse 13" class="cls-1" transform="translate(724 1238)">
        <ellipse class="cls-4" cx="30.5" cy="29.5" rx="30.5" ry="29.5"/>
        <ellipse class="cls-5" cx="30.5" cy="29.5" rx="30" ry="29"/>
      </g>
    </g>
    <path id="Path_16" data-name="Path 16" class="cls-2" d="M6,.5H18.5c4.142,0,6,3.358,6,7.5V22c0,2.771-.831,5.191-2.876,6.662A5.426,5.426,0,0,1,18.5,29.5H6C1.858,29.5.5,26.142.5,22V8C.5,3.858,1.858.5,6,.5Z" transform="translate(1453 2339)"/>
    <line id="Line_3" data-name="Line 3" class="cls-3" x2="24" transform="translate(1453.5 2353.5)"/>
  </g>
</svg>
